<svg width="20" height="27" viewBox="0 0 20 27" fill="none" xmlns="http://www.w3.org/2000/svg">
<path d="M10.3255 1H6.15885C5.05378 1 3.99398 1.43899 3.21258 2.22039C2.43117 3.00179 1.99219 4.0616 1.99219 5.16667C1.99219 6.27174 2.43117 7.33154 3.21258 8.11294C3.99398 8.89435 5.05378 9.33333 6.15885 9.33333M10.3255 1V9.33333M10.3255 1H14.4922C15.0394 1 15.5812 1.10778 16.0868 1.31717C16.5922 1.52657 17.0515 1.83347 17.4384 2.22039C17.8254 2.60731 18.1323 3.06663 18.3416 3.57215C18.5511 4.07768 18.6589 4.61949 18.6589 5.16667C18.6589 5.71385 18.5511 6.25565 18.3416 6.76118C18.1323 7.26671 17.8254 7.72603 17.4384 8.11294C17.0515 8.49986 16.5922 8.80676 16.0868 9.01617C15.5812 9.22556 15.0394 9.33333 14.4922 9.33333M10.3255 9.33333H6.15885M10.3255 9.33333H14.4922M10.3255 9.33333V17.6667M6.15885 9.33333C5.05378 9.33333 3.99398 9.77232 3.21258 10.5537C2.43117 11.3351 1.99219 12.395 1.99219 13.5C1.99219 14.605 2.43117 15.6649 3.21258 16.4462C3.99398 17.2276 5.05378 17.6667 6.15885 17.6667M14.4922 9.33333C13.945 9.33333 13.4032 9.44111 12.8976 9.6505C12.3922 9.8599 11.9329 10.1668 11.5459 10.5537C11.159 10.9407 10.852 11.4 10.6427 11.9054C10.4333 12.411 10.3255 12.9528 10.3255 13.5C10.3255 14.0472 10.4333 14.589 10.6427 15.0946C10.852 15.6 11.159 16.0593 11.5459 16.4462C11.9329 16.8332 12.3922 17.1401 12.8976 17.3494C13.4032 17.5589 13.945 17.6667 14.4922 17.6667C15.0394 17.6667 15.5812 17.5589 16.0868 17.3494C16.5922 17.1401 17.0515 16.8332 17.4384 16.4462C17.8254 16.0593 18.1323 15.6 18.3416 15.0946C18.5511 14.589 18.6589 14.0472 18.6589 13.5C18.6589 12.9528 18.5511 12.411 18.3416 11.9054C18.1323 11.4 17.8254 10.9407 17.4384 10.5537C17.0515 10.1668 16.5922 9.8599 16.0868 9.6505C15.5812 9.44111 15.0394 9.33333 14.4922 9.33333ZM6.15885 17.6667C5.05378 17.6667 3.99398 18.1057 3.21258 18.8871C2.43117 19.6685 1.99219 20.7283 1.99219 21.8333C1.99219 22.9383 2.43117 23.9982 3.21258 24.7796C3.99398 25.561 5.05378 26 6.15885 26C7.26392 26 8.32372 25.561 9.1051 24.7796C9.88649 23.9982 10.3255 22.9383 10.3255 21.8333V17.6667M6.15885 17.6667H10.3255" stroke="#191919" stroke-width="2" stroke-linecap="round" stroke-linejoin="round"/>
</svg>
