<svg width="28" height="27" viewBox="0 0 28 27" fill="none" xmlns="http://www.w3.org/2000/svg">
<path d="M17.4089 22.25V19.9212C17.4401 19.5344 17.3865 19.1454 17.2514 18.7803C17.1164 18.4151 16.903 18.0821 16.6256 17.8035C19.2423 17.5195 21.9923 16.5539 21.9923 12.1236C21.992 10.9907 21.5445 9.90126 20.7423 9.08076C21.1221 8.08964 21.0953 6.9941 20.6673 6.02174C20.6673 6.02174 19.6839 5.73775 17.4089 7.22264C15.4989 6.7186 13.4856 6.7186 11.5756 7.22264C9.30059 5.73775 8.31725 6.02174 8.31725 6.02174C7.88923 6.9941 7.86238 8.08964 8.24225 9.08076C7.43403 9.90735 6.98603 11.0066 6.99225 12.1479C6.99225 16.5458 9.74225 17.5114 12.3589 17.8278C12.0848 18.1036 11.8733 18.4326 11.7383 18.7934C11.6034 19.154 11.5479 19.5382 11.5756 19.9212V22.25M11.5755 20.6272C9.07553 21.4169 6.99219 20.6272 5.74219 18.193M14.4922 26C21.3957 26 26.9922 20.4035 26.9922 13.5C26.9922 6.59644 21.3957 1 14.4922 1C7.58863 1 1.99219 6.59644 1.99219 13.5C1.99219 20.4035 7.58863 26 14.4922 26Z" stroke="black" stroke-width="2" stroke-linecap="round" stroke-linejoin="round"/>
</svg>
