<svg width="28" height="27" viewBox="0 0 28 27" fill="none" xmlns="http://www.w3.org/2000/svg">
<path d="M21.0548 5.206C20.6853 5.6165 20.7186 6.24879 21.1291 6.61826C21.5396 6.98774 22.1719 6.95448 22.5413 6.54399L21.0548 5.206ZM22.5552 6.52856C22.9247 6.11806 22.8914 5.48577 22.481 5.1163C22.0705 4.74682 21.4382 4.78007 21.0687 5.19057L22.5552 6.52856ZM14.1592 20.0556C17.7797 20.0556 20.7147 17.1205 20.7147 13.5H18.7147C18.7147 16.0159 16.6751 18.0556 14.1592 18.0556V20.0556ZM20.7147 13.5C20.7147 9.87946 17.7797 6.94444 14.1592 6.94444V8.94444C16.6751 8.94444 18.7147 10.984 18.7147 13.5H20.7147ZM14.1592 6.94444C10.5386 6.94444 7.60362 9.87946 7.60362 13.5H9.60362C9.60362 10.984 11.6432 8.94444 14.1592 8.94444V6.94444ZM7.60362 13.5C7.60362 17.1205 10.5386 20.0556 14.1592 20.0556V18.0556C11.6432 18.0556 9.60362 16.0159 9.60362 13.5H7.60362ZM2.65918 19.0556V7.94444H0.65918V19.0556H2.65918ZM2.65918 7.94444C2.65918 4.66142 5.3206 2 8.60362 2V0C4.21603 0 0.65918 3.55685 0.65918 7.94444H2.65918ZM8.60362 2H19.7147V0H8.60362V2ZM19.7147 2C22.9977 2 25.6592 4.66143 25.6592 7.94444H27.6592C27.6592 3.55685 24.1023 0 19.7147 0V2ZM25.6592 7.94444V19.0556H27.6592V7.94444H25.6592ZM25.6592 19.0556C25.6592 22.3385 22.9977 25 19.7147 25V27C24.1023 27 27.6592 23.4431 27.6592 19.0556H25.6592ZM19.7147 25H8.60362V27H19.7147V25ZM8.60362 25C5.32061 25 2.65918 22.3386 2.65918 19.0556H0.65918C0.65918 23.4431 4.21603 27 8.60362 27V25ZM22.5413 6.54399L22.5552 6.52856L21.0687 5.19057L21.0548 5.206L22.5413 6.54399Z" fill="#191919"/>
</svg>
