<svg width="33" height="27" viewBox="0 0 33 27" fill="none" xmlns="http://www.w3.org/2000/svg">
<path d="M31.9922 1.01401C31.9922 1.01401 29.1808 2.67492 27.6174 3.14568C26.7783 2.18087 25.6631 1.49704 24.4227 1.18667C23.1823 0.876306 21.8766 0.95437 20.682 1.41032C19.4874 1.86628 18.4616 2.67811 17.7435 3.73601C17.0253 4.79393 16.6494 6.04687 16.6665 7.32541V8.71866C14.218 8.78213 11.7919 8.23912 9.60417 7.13794C7.4164 6.03676 5.53493 4.41162 4.12731 2.40726C4.12731 2.40726 -1.44567 14.9465 11.0935 20.5195C8.22419 22.4671 4.80604 23.4438 1.34082 23.306C13.88 30.2722 29.2057 23.306 29.2057 7.28362C29.2045 6.89553 29.1671 6.5084 29.0943 6.12722C30.5162 4.72491 31.9922 1.01401 31.9922 1.01401Z" stroke="#191919" stroke-width="2" stroke-linecap="round" stroke-linejoin="round"/>
</svg>
